<svg xmlns="http://www.w3.org/2000/svg" viewBox="0 0 64 64">
  <circle cx="32" cy="32" r="30" fill="#fff"/>
  <path d="M48 32c0-8.837-7.163-16-16-16s-16 7.163-16 16c0 7.732 5.477 14.163 12.75 15.7.41.087.83-.09 1.04-.46l2.21-3.82a1 1 0 0 1 1.76 0l2.21 3.82c.21.37.63.547 1.04.46C42.523 46.163 48 39.732 48 32z" fill="#000"/>
  <ellipse cx="32" cy="36" rx="10" ry="8" fill="#fff"/>
  <circle cx="29" cy="36" r="2" fill="#000"/>
  <circle cx="35" cy="36" r="2" fill="#000"/>
  <ellipse cx="32" cy="39" rx="1.2" ry="1" fill="#000"/>
</svg> 


